<svg xmlns="http://www.w3.org/2000/svg" viewBox="0 0 26 26" width="36" height="36" fill-rule="evenodd" clip-rule="evenodd"><path d="M22.533 5.508a9.95 9.95 0 01-.222 2.032c-.408 1.91-1.236 3.566-2.386 4.892-.483 1.427-1.895 2.527-3.318 2.527h-.072c-1.379.63-2.935.973-4.609.973H9.269l-1.128 5.291-.338 1.583h-1.66l-.652 3h5.986l1.466-6.874h4.274c4.093 0 7.514-2.522 8.431-6.81.77-3.605-.953-5.748-3.115-6.614z"/><path d="M14.918.059H4.717L.197 20.806h5.986l1.467-6.874h4.275c4.092 0 7.514-2.522 8.43-6.81C21.393 2.267 17.912.059 14.918.059zm-.183 7.063c-.366 1.577-1.894 2.837-3.421 2.837H8.506l1.282-5.675h2.932c1.466 0 2.443 1.263 2.015 2.838z"/></svg>