<svg xmlns="http://www.w3.org/2000/svg" viewBox="0 0 24 24" width="36" height="36"><g id="rounded"><path d="M17.59 13.029h1.239l-.413-2.17z"/><path d="M20 4H4a2 2 0 00-2 2v12a2 2 0 002 2h16a2 2 0 002-2V6a2 2 0 00-2-2zM2.715 9.207h2.273c.62 0 .826.516.826.516l.516 2.582c-.62-2.169-3.615-3.098-3.615-3.098zm2.892 5.681L4.471 10.24s1.24.723 1.963 2.479c0 .207.103.517.103.517L7.88 9.103h1.446l-2.169 5.785h-1.55zm4.958.103H9.119l.826-5.785h1.549l-.929 5.785zm2.583 0c-1.033 0-1.549-.31-1.549-.31l.207-1.24s.62.31 1.446.31.93-.31.93-.516c0-.93-2.066-.62-2.066-2.479 0-.93.723-1.756 2.273-1.756.62 0 1.343.31 1.343.31l-.31 1.24s-.517-.413-1.033-.413c-.723 0-.93.31-.93.62 0 .723 2.066.826 2.066 2.273-.001 1.238-1.447 2.065-2.377 1.961zm6.198-.103l-.207-.826H17.28l-.31.826h-1.446L17.9 9.103h1.549l1.136 5.785h-1.239z"/></g></svg>