<?xml version="1.0" encoding="utf-8"?>
<svg xmlns="http://www.w3.org/2000/svg" xmlns:xlink="http://www.w3.org/1999/xlink" viewBox="0 0 26 26" width="36px" height="36px" fill-rule="evenodd" clip-rule="evenodd">
    <g>
        <path fill-rule="evenodd" clip-rule="evenodd" fill="#000000" d="M22.533,5.508c-0.005,0.625-0.064,1.296-0.222,2.032   c-0.408,1.91-1.236,3.566-2.386,4.892c-0.483,1.427-1.895,2.527-3.318,2.527h-0.072c-1.379,0.63-2.935,0.973-4.609,0.973H9.269   l-1.128,5.291l-0.338,1.583H6.184H6.143l-0.652,3h5.986l1.466-6.874h4.274c4.093,0,7.514-2.522,8.431-6.81   C26.418,8.517,24.695,6.374,22.533,5.508z"/>
    </g>
    <g>
        <path fill-rule="evenodd" clip-rule="evenodd" fill="#000000" d="M14.918,0.059H4.717l-4.52,20.747h5.986l1.467-6.874h4.275   c4.092,0,7.514-2.522,8.43-6.81C21.393,2.267,17.912,0.059,14.918,0.059z M14.735,7.122c-0.366,1.577-1.894,2.837-3.421,2.837   H8.506l1.282-5.675h2.932C14.186,4.284,15.163,5.547,14.735,7.122z"/>
    </g>
</svg>