<?xml version="1.0" encoding="iso-8859-1"?>
<svg
    xmlns="http://www.w3.org/2000/svg"
    xmlns:xlink="http://www.w3.org/1999/xlink"
    viewBox="0 0 24 24"
    width="36px"
    height="36px"
>
    <g id="rounded">
        <g>
            <g>
                <polygon
                    points="17.59,13.029 18.829,13.029 18.416,10.859 "
                />
            </g>
            <g>
                <path
                    d="M20,4H4C2.895,4,2,4.895,2,6v12c0,1.105,0.895,2,2,2h16c1.105,0,2-0.895,2-2V6C22,4.895,21.105,4,20,4z M2.715,9.207c0,0,1.653,0,2.273,0c0.62,0,0.826,0.516,0.826,0.516l0.516,2.582C5.71,10.136,2.715,9.207,2.715,9.207z M5.607,14.888L4.471,10.24c0,0,1.24,0.723,1.963,2.479c0,0.207,0.103,0.517,0.103,0.517L7.88,9.103h1.446l-2.169,5.785H5.607z M10.565,14.991H9.119l0.826-5.785h1.549L10.565,14.991z M13.148,14.991c-1.033,0-1.549-0.31-1.549-0.31l0.207-1.24c0,0,0.62,0.31,1.446,0.31c0.826,0,0.93-0.31,0.93-0.516c0-0.93-2.066-0.62-2.066-2.479c0-0.93,0.723-1.756,2.273-1.756c0.62,0,1.343,0.31,1.343,0.31l-0.31,1.24c0,0-0.517-0.413-1.033-0.413c-0.723,0-0.93,0.31-0.93,0.62c0,0.723,2.066,0.826,2.066,2.273C15.524,14.268,14.078,15.095,13.148,14.991z M19.346,14.888l-0.207-0.826H17.28l-0.31,0.826h-1.446L17.9,9.103h1.549l1.136,5.785H19.346z"
                />
            </g>
        </g>
    </g>
</svg>